# xmcd CD database file
#
# Track frame offsets:
#	150
#	25155
#	51346
#	69542
#	92807
#	120912
#	149258
#	168671
#	177152
#	195985
#	217346
#	239634
#
# Disc length: 3402 seconds
#
# Revision: 0
# Processed by: cddbd v1.5.2PL0 Copyright (c) Steve Scherf et al.
# Submitted via: CDex 1.70beta3
#
DISCID=b00d480c
DTITLE=ロベルト・オルサー・トリオ - DREAMSVILLE
DYEAR=1900
DGENRE=Jazz
TTITLE0=Novembre
TTITLE1=Dreamsville
TTITLE2=Beau　Piece
TTITLE3=Violin　Concerto
TTITLE4=Ferragosto
TTITLE5=New　Old　Age
TTITLE6=The　Oldest　Living　Thing
TTITLE7=Unlikely　Taiko
TTITLE8=Fragile
TTITLE9=Com'e　lunga　l'attesa
TTITLE10=Maybe　Next　Time
TTITLE11=Morgen
EXTD=
EXTT0=
EXTT1=
EXTT2=
EXTT3=
EXTT4=
EXTT5=
EXTT6=
EXTT7=
EXTT8=
EXTT9=
EXTT10=
EXTT11=
PLAYORDER=
